<mxfile host="Electron" modified="2023-10-23T22:55:30.901Z" agent="Mozilla/5.0 (Windows NT 10.0; Win64; x64) AppleWebKit/537.36 (KHTML, like Gecko) draw.io/22.0.3 Chrome/114.0.5735.289 Electron/25.8.4 Safari/537.36" etag="Yb-_Kip3jY2AGckzFkeg" version="22.0.3" type="device" pages="2">
  <diagram name="Flow Diagram" id="a0GbZb3DKCXFi28Fs05z">
    <mxGraphModel dx="836" dy="586" grid="1" gridSize="10" guides="1" tooltips="1" connect="1" arrows="1" fold="1" page="1" pageScale="1" pageWidth="827" pageHeight="1169" background="#FFE6CC" math="0" shadow="0">
      <root>
        <mxCell id="0" />
        <mxCell id="1" parent="0" />
        <mxCell id="JLspe2YtJv0PtMzy74NI-10" style="edgeStyle=orthogonalEdgeStyle;rounded=1;orthogonalLoop=1;jettySize=auto;html=1;entryX=0.5;entryY=0;entryDx=0;entryDy=0;labelBackgroundColor=none;strokeColor=#60E696;fontColor=default;sketch=1;curveFitting=1;jiggle=2;" edge="1" parent="1" source="JLspe2YtJv0PtMzy74NI-2" target="JLspe2YtJv0PtMzy74NI-3">
          <mxGeometry relative="1" as="geometry" />
        </mxCell>
        <mxCell id="JLspe2YtJv0PtMzy74NI-11" style="edgeStyle=orthogonalEdgeStyle;rounded=1;orthogonalLoop=1;jettySize=auto;html=1;entryX=0.5;entryY=0;entryDx=0;entryDy=0;labelBackgroundColor=none;strokeColor=#60E696;fontColor=default;sketch=1;curveFitting=1;jiggle=2;" edge="1" parent="1" source="JLspe2YtJv0PtMzy74NI-2" target="JLspe2YtJv0PtMzy74NI-4">
          <mxGeometry relative="1" as="geometry" />
        </mxCell>
        <mxCell id="JLspe2YtJv0PtMzy74NI-2" value="&lt;b&gt;ARE YOU A USER?&lt;/b&gt;" style="strokeWidth=2;html=1;shape=mxgraph.flowchart.decision;whiteSpace=wrap;labelBackgroundColor=none;fillColor=#F694C1;strokeColor=#AF45ED;fontColor=#095C86;rounded=1;sketch=1;curveFitting=1;jiggle=2;" vertex="1" parent="1">
          <mxGeometry x="350" y="200" width="100" height="100" as="geometry" />
        </mxCell>
        <mxCell id="JLspe2YtJv0PtMzy74NI-12" style="edgeStyle=orthogonalEdgeStyle;rounded=1;orthogonalLoop=1;jettySize=auto;html=1;entryX=0;entryY=0.5;entryDx=0;entryDy=0;exitX=0.5;exitY=1;exitDx=0;exitDy=0;labelBackgroundColor=none;strokeColor=#60E696;fontColor=default;sketch=1;curveFitting=1;jiggle=2;" edge="1" parent="1" source="JLspe2YtJv0PtMzy74NI-3" target="JLspe2YtJv0PtMzy74NI-5">
          <mxGeometry relative="1" as="geometry" />
        </mxCell>
        <mxCell id="JLspe2YtJv0PtMzy74NI-3" value="&lt;b&gt;LOGIN&lt;/b&gt;" style="rounded=1;whiteSpace=wrap;html=1;labelBackgroundColor=none;fillColor=#F694C1;strokeColor=#AF45ED;fontColor=#095C86;sketch=1;curveFitting=1;jiggle=2;" vertex="1" parent="1">
          <mxGeometry x="60" y="360" width="120" height="60" as="geometry" />
        </mxCell>
        <mxCell id="JLspe2YtJv0PtMzy74NI-13" style="edgeStyle=orthogonalEdgeStyle;rounded=1;orthogonalLoop=1;jettySize=auto;html=1;entryX=1;entryY=0.5;entryDx=0;entryDy=0;exitX=0.5;exitY=1;exitDx=0;exitDy=0;labelBackgroundColor=none;strokeColor=#60E696;fontColor=default;sketch=1;curveFitting=1;jiggle=2;" edge="1" parent="1" source="JLspe2YtJv0PtMzy74NI-4" target="JLspe2YtJv0PtMzy74NI-5">
          <mxGeometry relative="1" as="geometry" />
        </mxCell>
        <mxCell id="JLspe2YtJv0PtMzy74NI-4" value="&lt;b&gt;REGISTER USER&lt;/b&gt;" style="rounded=1;whiteSpace=wrap;html=1;labelBackgroundColor=none;fillColor=#F694C1;strokeColor=#AF45ED;fontColor=#095C86;sketch=1;curveFitting=1;jiggle=2;" vertex="1" parent="1">
          <mxGeometry x="620" y="360" width="120" height="60" as="geometry" />
        </mxCell>
        <mxCell id="JLspe2YtJv0PtMzy74NI-14" style="edgeStyle=orthogonalEdgeStyle;rounded=1;orthogonalLoop=1;jettySize=auto;html=1;entryX=0.5;entryY=0;entryDx=0;entryDy=0;labelBackgroundColor=none;strokeColor=#60E696;fontColor=default;sketch=1;curveFitting=1;jiggle=2;" edge="1" parent="1" source="JLspe2YtJv0PtMzy74NI-5" target="JLspe2YtJv0PtMzy74NI-6">
          <mxGeometry relative="1" as="geometry" />
        </mxCell>
        <mxCell id="JLspe2YtJv0PtMzy74NI-5" value="&lt;b&gt;ACCESS DATABASE&lt;/b&gt;" style="rounded=1;whiteSpace=wrap;html=1;labelBackgroundColor=none;fillColor=#F694C1;strokeColor=#AF45ED;fontColor=#095C86;sketch=1;curveFitting=1;jiggle=2;" vertex="1" parent="1">
          <mxGeometry x="340" y="500" width="120" height="60" as="geometry" />
        </mxCell>
        <mxCell id="JLspe2YtJv0PtMzy74NI-6" value="&lt;b&gt;LOG INTO APPLICATION&lt;/b&gt;" style="rounded=1;whiteSpace=wrap;html=1;labelBackgroundColor=none;fillColor=#F694C1;strokeColor=#AF45ED;fontColor=#095C86;sketch=1;curveFitting=1;jiggle=2;" vertex="1" parent="1">
          <mxGeometry x="340" y="650" width="120" height="60" as="geometry" />
        </mxCell>
        <mxCell id="JLspe2YtJv0PtMzy74NI-7" value="&lt;b&gt;START&lt;/b&gt;" style="strokeWidth=2;html=1;shape=mxgraph.flowchart.start_1;whiteSpace=wrap;labelBackgroundColor=none;fillColor=#F694C1;strokeColor=#AF45ED;fontColor=#095C86;rounded=1;sketch=1;curveFitting=1;jiggle=2;" vertex="1" parent="1">
          <mxGeometry x="350" y="40" width="100" height="60" as="geometry" />
        </mxCell>
        <mxCell id="JLspe2YtJv0PtMzy74NI-8" value="&lt;b&gt;LOGOUT&lt;/b&gt;" style="strokeWidth=2;html=1;shape=mxgraph.flowchart.terminator;whiteSpace=wrap;labelBackgroundColor=none;fillColor=#F694C1;strokeColor=#AF45ED;fontColor=#095C86;rounded=1;sketch=1;curveFitting=1;jiggle=2;" vertex="1" parent="1">
          <mxGeometry x="350" y="800" width="100" height="60" as="geometry" />
        </mxCell>
        <mxCell id="JLspe2YtJv0PtMzy74NI-9" style="edgeStyle=orthogonalEdgeStyle;rounded=1;orthogonalLoop=1;jettySize=auto;html=1;entryX=0.5;entryY=0;entryDx=0;entryDy=0;entryPerimeter=0;labelBackgroundColor=none;strokeColor=#60E696;fontColor=default;sketch=1;curveFitting=1;jiggle=2;" edge="1" parent="1" source="JLspe2YtJv0PtMzy74NI-7" target="JLspe2YtJv0PtMzy74NI-2">
          <mxGeometry relative="1" as="geometry" />
        </mxCell>
        <mxCell id="JLspe2YtJv0PtMzy74NI-15" style="edgeStyle=orthogonalEdgeStyle;rounded=1;orthogonalLoop=1;jettySize=auto;html=1;entryX=0.5;entryY=0;entryDx=0;entryDy=0;entryPerimeter=0;labelBackgroundColor=none;strokeColor=#60E696;fontColor=default;sketch=1;curveFitting=1;jiggle=2;" edge="1" parent="1" source="JLspe2YtJv0PtMzy74NI-6" target="JLspe2YtJv0PtMzy74NI-8">
          <mxGeometry relative="1" as="geometry" />
        </mxCell>
      </root>
    </mxGraphModel>
  </diagram>
  <diagram id="_Yv9E4FtxStGPUcQKLlV" name="Sequence Diagram">
    <mxGraphModel dx="1588" dy="1114" grid="1" gridSize="10" guides="1" tooltips="1" connect="1" arrows="1" fold="1" page="1" pageScale="1" pageWidth="1169" pageHeight="827" background="#FFE6CC" math="0" shadow="0">
      <root>
        <mxCell id="0" />
        <mxCell id="1" parent="0" />
        <mxCell id="DnQKXCu1JtyCXO_7YjPu-8" value="USER" style="shape=umlLifeline;perimeter=lifelinePerimeter;whiteSpace=wrap;html=1;container=1;dropTarget=0;collapsible=0;recursiveResize=0;outlineConnect=0;portConstraint=eastwest;newEdgeStyle={&quot;curved&quot;:0,&quot;rounded&quot;:0};participant=umlActor;labelPosition=center;verticalLabelPosition=top;align=center;verticalAlign=bottom;labelBackgroundColor=none;fillColor=#F694C1;strokeColor=#AF45ED;fontColor=#095C86;rounded=1;sketch=1;curveFitting=1;jiggle=2;" vertex="1" parent="1">
          <mxGeometry x="130" y="105" width="20" height="626" as="geometry" />
        </mxCell>
        <mxCell id="DnQKXCu1JtyCXO_7YjPu-15" value="" style="html=1;points=[[0,0,0,0,5],[0,1,0,0,-5],[1,0,0,0,5],[1,1,0,0,-5]];perimeter=orthogonalPerimeter;outlineConnect=0;targetShapes=umlLifeline;portConstraint=eastwest;newEdgeStyle={&quot;curved&quot;:0,&quot;rounded&quot;:0};labelBackgroundColor=none;fillColor=#F694C1;strokeColor=#AF45ED;fontColor=#095C86;rounded=1;sketch=1;curveFitting=1;jiggle=2;" vertex="1" parent="DnQKXCu1JtyCXO_7YjPu-8">
          <mxGeometry x="5" y="40" width="10" height="550" as="geometry" />
        </mxCell>
        <mxCell id="DnQKXCu1JtyCXO_7YjPu-9" value="React Frontend Interface" style="shape=umlLifeline;perimeter=lifelinePerimeter;whiteSpace=wrap;html=1;container=1;dropTarget=0;collapsible=0;recursiveResize=0;outlineConnect=0;portConstraint=eastwest;newEdgeStyle={&quot;curved&quot;:0,&quot;rounded&quot;:0};labelBackgroundColor=none;fillColor=#F694C1;strokeColor=#AF45ED;fontColor=#095C86;rounded=1;sketch=1;curveFitting=1;jiggle=2;" vertex="1" parent="1">
          <mxGeometry x="220" y="96" width="110" height="635" as="geometry" />
        </mxCell>
        <mxCell id="DnQKXCu1JtyCXO_7YjPu-16" value="" style="html=1;points=[[0,0,0,0,5],[0,1,0,0,-5],[1,0,0,0,5],[1,1,0,0,-5]];perimeter=orthogonalPerimeter;outlineConnect=0;targetShapes=umlLifeline;portConstraint=eastwest;newEdgeStyle={&quot;curved&quot;:0,&quot;rounded&quot;:0};labelBackgroundColor=none;fillColor=#F694C1;strokeColor=#AF45ED;fontColor=#095C86;rounded=1;sketch=1;curveFitting=1;jiggle=2;" vertex="1" parent="DnQKXCu1JtyCXO_7YjPu-9">
          <mxGeometry x="50" y="49" width="10" height="551" as="geometry" />
        </mxCell>
        <mxCell id="DnQKXCu1JtyCXO_7YjPu-10" value="Django Backend" style="shape=umlLifeline;perimeter=lifelinePerimeter;whiteSpace=wrap;html=1;container=1;dropTarget=0;collapsible=0;recursiveResize=0;outlineConnect=0;portConstraint=eastwest;newEdgeStyle={&quot;curved&quot;:0,&quot;rounded&quot;:0};labelBackgroundColor=none;fillColor=#F694C1;strokeColor=#AF45ED;fontColor=#095C86;rounded=1;sketch=1;curveFitting=1;jiggle=2;" vertex="1" parent="1">
          <mxGeometry x="400" y="96" width="110" height="635" as="geometry" />
        </mxCell>
        <mxCell id="DnQKXCu1JtyCXO_7YjPu-17" value="" style="html=1;points=[[0,0,0,0,5],[0,1,0,0,-5],[1,0,0,0,5],[1,1,0,0,-5]];perimeter=orthogonalPerimeter;outlineConnect=0;targetShapes=umlLifeline;portConstraint=eastwest;newEdgeStyle={&quot;curved&quot;:0,&quot;rounded&quot;:0};labelBackgroundColor=none;fillColor=#F694C1;strokeColor=#AF45ED;fontColor=#095C86;rounded=1;sketch=1;curveFitting=1;jiggle=2;" vertex="1" parent="DnQKXCu1JtyCXO_7YjPu-10">
          <mxGeometry x="50" y="49" width="10" height="551" as="geometry" />
        </mxCell>
        <mxCell id="DnQKXCu1JtyCXO_7YjPu-11" value="PostgreSQL Database" style="shape=umlLifeline;perimeter=lifelinePerimeter;whiteSpace=wrap;html=1;container=1;dropTarget=0;collapsible=0;recursiveResize=0;outlineConnect=0;portConstraint=eastwest;newEdgeStyle={&quot;curved&quot;:0,&quot;rounded&quot;:0};labelBackgroundColor=none;fillColor=#F694C1;strokeColor=#AF45ED;fontColor=#095C86;rounded=1;sketch=1;curveFitting=1;jiggle=2;" vertex="1" parent="1">
          <mxGeometry x="574.5" y="96" width="110" height="635" as="geometry" />
        </mxCell>
        <mxCell id="DnQKXCu1JtyCXO_7YjPu-18" value="" style="html=1;points=[[0,0,0,0,5],[0,1,0,0,-5],[1,0,0,0,5],[1,1,0,0,-5]];perimeter=orthogonalPerimeter;outlineConnect=0;targetShapes=umlLifeline;portConstraint=eastwest;newEdgeStyle={&quot;curved&quot;:0,&quot;rounded&quot;:0};labelBackgroundColor=none;fillColor=#F694C1;strokeColor=#AF45ED;fontColor=#095C86;rounded=1;sketch=1;curveFitting=1;jiggle=2;" vertex="1" parent="DnQKXCu1JtyCXO_7YjPu-11">
          <mxGeometry x="50.5" y="180" width="10" height="80" as="geometry" />
        </mxCell>
        <mxCell id="DnQKXCu1JtyCXO_7YjPu-33" value="Update Database" style="html=1;align=left;spacingLeft=2;endArrow=block;rounded=1;edgeStyle=orthogonalEdgeStyle;curved=0;rounded=0;labelBackgroundColor=none;strokeColor=#60E696;fontColor=default;sketch=1;curveFitting=1;jiggle=2;" edge="1" target="DnQKXCu1JtyCXO_7YjPu-18" parent="DnQKXCu1JtyCXO_7YjPu-11" source="DnQKXCu1JtyCXO_7YjPu-18">
          <mxGeometry relative="1" as="geometry">
            <mxPoint x="75.5" y="205" as="sourcePoint" />
            <Array as="points">
              <mxPoint x="86" y="205" />
              <mxPoint x="86" y="235" />
            </Array>
            <mxPoint x="75.5" y="235" as="targetPoint" />
          </mxGeometry>
        </mxCell>
        <mxCell id="DnQKXCu1JtyCXO_7YjPu-43" value="" style="html=1;points=[[0,0,0,0,5],[0,1,0,0,-5],[1,0,0,0,5],[1,1,0,0,-5]];perimeter=orthogonalPerimeter;outlineConnect=0;targetShapes=umlLifeline;portConstraint=eastwest;newEdgeStyle={&quot;curved&quot;:0,&quot;rounded&quot;:0};labelBackgroundColor=none;fillColor=#F694C1;strokeColor=#AF45ED;fontColor=#095C86;rounded=1;sketch=1;curveFitting=1;jiggle=2;" vertex="1" parent="DnQKXCu1JtyCXO_7YjPu-11">
          <mxGeometry x="50.5" y="395" width="10" height="125" as="geometry" />
        </mxCell>
        <mxCell id="DnQKXCu1JtyCXO_7YjPu-45" value="Update Database" style="html=1;align=left;spacingLeft=2;endArrow=block;rounded=1;edgeStyle=orthogonalEdgeStyle;curved=0;rounded=0;labelBackgroundColor=none;strokeColor=#60E696;fontColor=default;sketch=1;curveFitting=1;jiggle=2;" edge="1" parent="DnQKXCu1JtyCXO_7YjPu-11" source="DnQKXCu1JtyCXO_7YjPu-43" target="DnQKXCu1JtyCXO_7YjPu-43">
          <mxGeometry relative="1" as="geometry">
            <mxPoint x="65.5" y="435" as="sourcePoint" />
            <Array as="points">
              <mxPoint x="90.5" y="435" />
              <mxPoint x="90.5" y="465" />
            </Array>
            <mxPoint x="65.5" y="465" as="targetPoint" />
          </mxGeometry>
        </mxCell>
        <mxCell id="DnQKXCu1JtyCXO_7YjPu-12" value="MS Azure OCR API" style="shape=umlLifeline;perimeter=lifelinePerimeter;whiteSpace=wrap;html=1;container=1;dropTarget=0;collapsible=0;recursiveResize=0;outlineConnect=0;portConstraint=eastwest;newEdgeStyle={&quot;curved&quot;:0,&quot;rounded&quot;:0};labelBackgroundColor=none;fillColor=#F694C1;strokeColor=#AF45ED;fontColor=#095C86;rounded=1;sketch=1;curveFitting=1;jiggle=2;" vertex="1" parent="1">
          <mxGeometry x="750" y="96" width="110" height="635" as="geometry" />
        </mxCell>
        <mxCell id="DnQKXCu1JtyCXO_7YjPu-19" value="" style="html=1;points=[[0,0,0,0,5],[0,1,0,0,-5],[1,0,0,0,5],[1,1,0,0,-5]];perimeter=orthogonalPerimeter;outlineConnect=0;targetShapes=umlLifeline;portConstraint=eastwest;newEdgeStyle={&quot;curved&quot;:0,&quot;rounded&quot;:0};labelBackgroundColor=none;fillColor=#F694C1;strokeColor=#AF45ED;fontColor=#095C86;rounded=1;sketch=1;curveFitting=1;jiggle=2;" vertex="1" parent="DnQKXCu1JtyCXO_7YjPu-12">
          <mxGeometry x="50" y="80" width="10" height="70" as="geometry" />
        </mxCell>
        <mxCell id="DnQKXCu1JtyCXO_7YjPu-13" value="MS Azure Facial API" style="shape=umlLifeline;perimeter=lifelinePerimeter;whiteSpace=wrap;html=1;container=1;dropTarget=0;collapsible=0;recursiveResize=0;outlineConnect=0;portConstraint=eastwest;newEdgeStyle={&quot;curved&quot;:0,&quot;rounded&quot;:0};labelBackgroundColor=none;fillColor=#F694C1;strokeColor=#AF45ED;fontColor=#095C86;rounded=1;sketch=1;curveFitting=1;jiggle=2;" vertex="1" parent="1">
          <mxGeometry x="930" y="96" width="110" height="635" as="geometry" />
        </mxCell>
        <mxCell id="DnQKXCu1JtyCXO_7YjPu-20" value="" style="html=1;points=[[0,0,0,0,5],[0,1,0,0,-5],[1,0,0,0,5],[1,1,0,0,-5]];perimeter=orthogonalPerimeter;outlineConnect=0;targetShapes=umlLifeline;portConstraint=eastwest;newEdgeStyle={&quot;curved&quot;:0,&quot;rounded&quot;:0};labelBackgroundColor=none;fillColor=#F694C1;strokeColor=#AF45ED;fontColor=#095C86;rounded=1;sketch=1;curveFitting=1;jiggle=2;" vertex="1" parent="DnQKXCu1JtyCXO_7YjPu-13">
          <mxGeometry x="50" y="320" width="10" height="90" as="geometry" />
        </mxCell>
        <mxCell id="DnQKXCu1JtyCXO_7YjPu-21" value="Upload Passport Biopage" style="html=1;verticalAlign=bottom;endArrow=block;curved=0;rounded=1;labelBackgroundColor=none;strokeColor=#60E696;fontColor=default;sketch=1;curveFitting=1;jiggle=2;" edge="1" parent="1" source="DnQKXCu1JtyCXO_7YjPu-15">
          <mxGeometry width="80" relative="1" as="geometry">
            <mxPoint x="160" y="171" as="sourcePoint" />
            <mxPoint x="270" y="171" as="targetPoint" />
          </mxGeometry>
        </mxCell>
        <mxCell id="DnQKXCu1JtyCXO_7YjPu-22" value="Send Picture to App Backend" style="html=1;verticalAlign=bottom;endArrow=block;curved=0;rounded=1;labelBackgroundColor=none;strokeColor=#60E696;fontColor=default;sketch=1;curveFitting=1;jiggle=2;" edge="1" parent="1">
          <mxGeometry width="80" relative="1" as="geometry">
            <mxPoint x="280" y="181" as="sourcePoint" />
            <mxPoint x="450" y="181" as="targetPoint" />
          </mxGeometry>
        </mxCell>
        <mxCell id="DnQKXCu1JtyCXO_7YjPu-23" value="Send Picture to OCR API" style="html=1;verticalAlign=bottom;endArrow=block;curved=0;rounded=1;labelBackgroundColor=none;strokeColor=#60E696;fontColor=default;sketch=1;curveFitting=1;jiggle=2;" edge="1" parent="1">
          <mxGeometry x="-0.5265" width="80" relative="1" as="geometry">
            <mxPoint x="459.5" y="191" as="sourcePoint" />
            <mxPoint x="799.5" y="191" as="targetPoint" />
            <mxPoint as="offset" />
          </mxGeometry>
        </mxCell>
        <mxCell id="DnQKXCu1JtyCXO_7YjPu-25" value="Process Image" style="html=1;align=left;spacingLeft=2;endArrow=block;rounded=1;edgeStyle=orthogonalEdgeStyle;curved=0;rounded=0;labelBackgroundColor=none;strokeColor=#60E696;fontColor=default;sketch=1;curveFitting=1;jiggle=2;" edge="1" target="DnQKXCu1JtyCXO_7YjPu-19" parent="1">
          <mxGeometry relative="1" as="geometry">
            <mxPoint x="810" y="191" as="sourcePoint" />
            <Array as="points">
              <mxPoint x="840" y="191" />
              <mxPoint x="840" y="221" />
            </Array>
            <mxPoint x="815" y="221" as="targetPoint" />
          </mxGeometry>
        </mxCell>
        <mxCell id="DnQKXCu1JtyCXO_7YjPu-26" value="Return Information read from Picture" style="html=1;verticalAlign=bottom;endArrow=open;dashed=1;endSize=8;curved=0;rounded=1;labelBackgroundColor=none;strokeColor=#60E696;fontColor=default;sketch=1;curveFitting=1;jiggle=2;" edge="1" parent="1">
          <mxGeometry x="-0.4147" relative="1" as="geometry">
            <mxPoint x="799.5" y="221" as="sourcePoint" />
            <mxPoint x="459.5" y="221" as="targetPoint" />
            <mxPoint as="offset" />
          </mxGeometry>
        </mxCell>
        <mxCell id="DnQKXCu1JtyCXO_7YjPu-27" value="Return User Information for&lt;br&gt;&amp;nbsp;Confirmation" style="html=1;verticalAlign=bottom;endArrow=open;dashed=1;endSize=8;curved=0;rounded=1;labelBackgroundColor=none;strokeColor=#60E696;fontColor=default;sketch=1;curveFitting=1;jiggle=2;" edge="1" parent="1">
          <mxGeometry relative="1" as="geometry">
            <mxPoint x="450" y="231" as="sourcePoint" />
            <mxPoint x="280" y="231" as="targetPoint" />
          </mxGeometry>
        </mxCell>
        <mxCell id="DnQKXCu1JtyCXO_7YjPu-28" value="Confirm Information" style="html=1;verticalAlign=bottom;endArrow=open;dashed=1;endSize=8;curved=0;rounded=1;labelBackgroundColor=none;strokeColor=#60E696;fontColor=default;sketch=1;curveFitting=1;jiggle=2;" edge="1" parent="1">
          <mxGeometry relative="1" as="geometry">
            <mxPoint x="270" y="241" as="sourcePoint" />
            <mxPoint x="145" y="241" as="targetPoint" />
          </mxGeometry>
        </mxCell>
        <mxCell id="DnQKXCu1JtyCXO_7YjPu-29" value="Information Confirmed" style="html=1;verticalAlign=bottom;endArrow=block;curved=0;rounded=1;labelBackgroundColor=none;strokeColor=#60E696;fontColor=default;sketch=1;curveFitting=1;jiggle=2;" edge="1" parent="1">
          <mxGeometry width="80" relative="1" as="geometry">
            <mxPoint x="145" y="271" as="sourcePoint" />
            <mxPoint x="270" y="271" as="targetPoint" />
          </mxGeometry>
        </mxCell>
        <mxCell id="DnQKXCu1JtyCXO_7YjPu-30" value="Send User Information" style="html=1;verticalAlign=bottom;endArrow=block;curved=0;rounded=1;labelBackgroundColor=none;strokeColor=#60E696;fontColor=default;sketch=1;curveFitting=1;jiggle=2;" edge="1" parent="1" target="DnQKXCu1JtyCXO_7YjPu-17">
          <mxGeometry width="80" relative="1" as="geometry">
            <mxPoint x="280" y="281" as="sourcePoint" />
            <mxPoint x="360" y="281" as="targetPoint" />
          </mxGeometry>
        </mxCell>
        <mxCell id="DnQKXCu1JtyCXO_7YjPu-31" value="Save User Informaton" style="html=1;verticalAlign=bottom;endArrow=block;curved=0;rounded=1;labelBackgroundColor=none;strokeColor=#60E696;fontColor=default;sketch=1;curveFitting=1;jiggle=2;" edge="1" parent="1" target="DnQKXCu1JtyCXO_7YjPu-18">
          <mxGeometry width="80" relative="1" as="geometry">
            <mxPoint x="460" y="291" as="sourcePoint" />
            <mxPoint x="540" y="291" as="targetPoint" />
          </mxGeometry>
        </mxCell>
        <mxCell id="DnQKXCu1JtyCXO_7YjPu-34" value="Confirm Database Update" style="html=1;verticalAlign=bottom;endArrow=open;dashed=1;endSize=8;curved=0;rounded=1;labelBackgroundColor=none;strokeColor=#60E696;fontColor=default;sketch=1;curveFitting=1;jiggle=2;" edge="1" parent="1">
          <mxGeometry relative="1" as="geometry">
            <mxPoint x="625" y="331" as="sourcePoint" />
            <mxPoint x="460" y="331" as="targetPoint" />
          </mxGeometry>
        </mxCell>
        <mxCell id="DnQKXCu1JtyCXO_7YjPu-35" value="Confirm User Creation" style="html=1;verticalAlign=bottom;endArrow=open;dashed=1;endSize=8;curved=0;rounded=1;labelBackgroundColor=none;strokeColor=#60E696;fontColor=default;sketch=1;curveFitting=1;jiggle=2;" edge="1" parent="1">
          <mxGeometry relative="1" as="geometry">
            <mxPoint x="450" y="341" as="sourcePoint" />
            <mxPoint x="280" y="341" as="targetPoint" />
          </mxGeometry>
        </mxCell>
        <mxCell id="DnQKXCu1JtyCXO_7YjPu-36" value="Redirect User Into App" style="html=1;verticalAlign=bottom;endArrow=open;dashed=1;endSize=8;curved=0;rounded=1;labelBackgroundColor=none;strokeColor=#60E696;fontColor=default;sketch=1;curveFitting=1;jiggle=2;" edge="1" parent="1" target="DnQKXCu1JtyCXO_7YjPu-15">
          <mxGeometry relative="1" as="geometry">
            <mxPoint x="270" y="351" as="sourcePoint" />
            <mxPoint x="190" y="351" as="targetPoint" />
          </mxGeometry>
        </mxCell>
        <mxCell id="DnQKXCu1JtyCXO_7YjPu-37" value="Upload Selfie" style="html=1;verticalAlign=bottom;endArrow=block;curved=0;rounded=1;labelBackgroundColor=none;strokeColor=#60E696;fontColor=default;sketch=1;curveFitting=1;jiggle=2;" edge="1" parent="1">
          <mxGeometry width="80" relative="1" as="geometry">
            <mxPoint x="145" y="391" as="sourcePoint" />
            <mxPoint x="270" y="391" as="targetPoint" />
          </mxGeometry>
        </mxCell>
        <mxCell id="DnQKXCu1JtyCXO_7YjPu-38" value="Send Selfie to Backend" style="html=1;verticalAlign=bottom;endArrow=block;curved=0;rounded=1;labelBackgroundColor=none;strokeColor=#60E696;fontColor=default;sketch=1;curveFitting=1;jiggle=2;" edge="1" parent="1">
          <mxGeometry width="80" relative="1" as="geometry">
            <mxPoint x="280" y="411" as="sourcePoint" />
            <mxPoint x="450" y="411" as="targetPoint" />
          </mxGeometry>
        </mxCell>
        <mxCell id="DnQKXCu1JtyCXO_7YjPu-39" value="Send Selfie to Face API" style="html=1;verticalAlign=bottom;endArrow=block;curved=0;rounded=1;labelBackgroundColor=none;strokeColor=#60E696;fontColor=default;sketch=1;curveFitting=1;jiggle=2;" edge="1" parent="1" target="DnQKXCu1JtyCXO_7YjPu-20">
          <mxGeometry width="80" relative="1" as="geometry">
            <mxPoint x="460" y="431" as="sourcePoint" />
            <mxPoint x="625" y="431" as="targetPoint" />
          </mxGeometry>
        </mxCell>
        <mxCell id="DnQKXCu1JtyCXO_7YjPu-41" value="Verify Image" style="html=1;align=left;spacingLeft=2;endArrow=block;rounded=1;edgeStyle=orthogonalEdgeStyle;curved=0;rounded=0;labelBackgroundColor=none;strokeColor=#60E696;fontColor=default;sketch=1;curveFitting=1;jiggle=2;" edge="1" parent="1">
          <mxGeometry relative="1" as="geometry">
            <mxPoint x="990" y="438.5" as="sourcePoint" />
            <Array as="points">
              <mxPoint x="1015" y="438.5" />
              <mxPoint x="1015" y="468.5" />
            </Array>
            <mxPoint x="990" y="468.5" as="targetPoint" />
          </mxGeometry>
        </mxCell>
        <mxCell id="DnQKXCu1JtyCXO_7YjPu-42" value="Return True/False for Image Matching" style="html=1;verticalAlign=bottom;endArrow=open;dashed=1;endSize=8;curved=0;rounded=1;labelBackgroundColor=none;strokeColor=#60E696;fontColor=default;sketch=1;curveFitting=1;jiggle=2;" edge="1" parent="1" target="DnQKXCu1JtyCXO_7YjPu-17">
          <mxGeometry relative="1" as="geometry">
            <mxPoint x="980" y="481" as="sourcePoint" />
            <mxPoint x="900" y="481" as="targetPoint" />
          </mxGeometry>
        </mxCell>
        <mxCell id="DnQKXCu1JtyCXO_7YjPu-44" value="Save User Image" style="html=1;verticalAlign=bottom;endArrow=block;curved=0;rounded=1;labelBackgroundColor=none;strokeColor=#60E696;fontColor=default;sketch=1;curveFitting=1;jiggle=2;" edge="1" parent="1" target="DnQKXCu1JtyCXO_7YjPu-43">
          <mxGeometry width="80" relative="1" as="geometry">
            <mxPoint x="460" y="521" as="sourcePoint" />
            <mxPoint x="540" y="521" as="targetPoint" />
          </mxGeometry>
        </mxCell>
        <mxCell id="DnQKXCu1JtyCXO_7YjPu-46" value="Confirm Database Update" style="html=1;verticalAlign=bottom;endArrow=open;dashed=1;endSize=8;curved=0;rounded=1;labelBackgroundColor=none;strokeColor=#60E696;fontColor=default;sketch=1;curveFitting=1;jiggle=2;" edge="1" parent="1">
          <mxGeometry relative="1" as="geometry">
            <mxPoint x="625" y="581" as="sourcePoint" />
            <mxPoint x="460" y="581" as="targetPoint" />
          </mxGeometry>
        </mxCell>
        <mxCell id="DnQKXCu1JtyCXO_7YjPu-47" value="Confirm image has been saved" style="html=1;verticalAlign=bottom;endArrow=open;dashed=1;endSize=8;curved=0;rounded=1;labelBackgroundColor=none;strokeColor=#60E696;fontColor=default;sketch=1;curveFitting=1;jiggle=2;" edge="1" parent="1">
          <mxGeometry relative="1" as="geometry">
            <mxPoint x="450" y="611" as="sourcePoint" />
            <mxPoint x="280" y="611" as="targetPoint" />
          </mxGeometry>
        </mxCell>
        <mxCell id="DnQKXCu1JtyCXO_7YjPu-48" value="Confirm User&lt;br&gt;Verification" style="html=1;verticalAlign=bottom;endArrow=open;dashed=1;endSize=8;curved=0;rounded=1;labelBackgroundColor=none;strokeColor=#60E696;fontColor=default;sketch=1;curveFitting=1;jiggle=2;" edge="1" parent="1" target="DnQKXCu1JtyCXO_7YjPu-15">
          <mxGeometry relative="1" as="geometry">
            <mxPoint x="270" y="651" as="sourcePoint" />
            <mxPoint x="190" y="651" as="targetPoint" />
          </mxGeometry>
        </mxCell>
      </root>
    </mxGraphModel>
  </diagram>
</mxfile>
